<?xml version="1.0" standalone="no"?>
<!DOCTYPE svg PUBLIC "-//W3C//DTD SVG 20010904//EN"
 "http://www.w3.org/TR/2001/REC-SVG-20010904/DTD/svg10.dtd">
<svg version="1.0" xmlns="http://www.w3.org/2000/svg"
 width="600.000000pt" height="600.000000pt" viewBox="0 0 600.000000 600.000000"
 preserveAspectRatio="xMidYMid meet">

<g transform="translate(0.000000,600.000000) scale(0.100000,-0.100000)"
fill="#000000" stroke="none">
<path d="M2893 5279 c-52 -25 -99 -77 -126 -138 -30 -67 -29 -179 2 -249 40
-89 48 -92 232 -92 l159 0 39 35 c96 87 95 261 -2 371 -79 89 -208 121 -304
73z"/>
<path d="M2174 5146 c-113 -37 -255 -98 -251 -109 2 -6 30 -24 62 -41 54 -29
67 -31 164 -32 l106 -2 5 -59 c3 -32 13 -71 23 -86 20 -31 75 -61 128 -71 44
-8 56 -20 61 -61 5 -45 27 -37 69 23 50 71 63 133 44 206 -56 215 -205 299
-411 232z"/>
<path d="M3620 5161 c-68 -21 -141 -83 -174 -148 -21 -43 -37 -159 -27 -208 9
-46 42 -115 65 -134 20 -17 46 -7 46 17 0 26 29 49 71 57 86 16 131 68 139
159 l5 60 95 -3 c77 -2 106 2 149 18 53 20 91 46 91 63 0 16 -165 87 -251 108
-86 20 -164 24 -209 11z"/>
<path d="M4091 4971 c-35 -22 -75 -42 -88 -46 -13 -3 -23 -10 -21 -16 8 -25
328 -148 453 -175 118 -26 249 -2 299 55 12 13 16 25 10 30 -5 5 -85 31 -179
59 -93 29 -224 70 -290 92 -65 22 -119 40 -120 40 0 0 -29 -18 -64 -39z"/>
<path d="M1635 4941 c-93 -32 -216 -71 -273 -87 -89 -25 -102 -32 -100 -49 2
-13 22 -30 57 -47 88 -45 230 -39 406 18 98 31 287 115 292 130 2 5 -24 23
-57 39 -34 16 -66 35 -72 42 -19 23 -80 12 -253 -46z"/>
<path d="M2035 4845 c-178 -86 -309 -133 -445 -161 -63 -13 -117 -24 -119 -24
-15 0 51 -56 84 -70 92 -41 186 -32 349 34 102 41 273 135 300 165 29 32 8
123 -28 120 -6 0 -69 -29 -141 -64z"/>
<path d="M3795 4886 c-10 -15 -15 -40 -13 -63 l3 -38 170 -85 c215 -108 319
-144 392 -135 61 7 178 63 178 85 0 10 -30 20 -111 36 -201 39 -339 89 -479
173 -46 28 -93 51 -104 51 -11 0 -28 -11 -36 -24z"/>
<path d="M985 4775 c-82 -7 -238 -18 -345 -25 -107 -6 -199 -15 -204 -20 -17
-16 5 -62 52 -109 108 -107 234 -128 610 -100 145 11 368 42 380 54 3 3 -14
26 -38 50 -31 31 -59 49 -94 59 -36 11 -64 29 -96 61 -50 51 -31 49 -265 30z"/>
<path d="M4759 4754 c-18 -20 -61 -49 -94 -64 -68 -31 -145 -104 -129 -120 22
-22 416 -60 625 -60 189 0 282 30 358 116 43 49 60 89 45 104 -8 8 -644 60
-732 60 -31 0 -45 -7 -73 -36z"/>
<path d="M2840 4746 c0 -22 24 -26 176 -26 137 0 144 1 144 20 0 19 -7 20
-160 20 -130 0 -160 -3 -160 -14z"/>
<path d="M2181 4708 c-100 -63 -226 -124 -323 -159 -49 -18 -91 -36 -94 -41
-10 -16 6 -44 38 -62 53 -32 136 -25 223 18 74 37 197 121 276 189 l44 38 -35
29 c-19 17 -41 30 -50 29 -8 0 -44 -19 -79 -41z"/>
<path d="M3684 4716 l-28 -23 30 -28 c105 -100 297 -218 380 -235 62 -13 123
-1 155 31 34 34 20 49 -76 83 -104 38 -165 67 -291 142 -50 30 -102 54 -117
54 -14 0 -38 -11 -53 -24z"/>
<path d="M2894 4665 c-3 -8 -1 -263 5 -567 9 -412 15 -556 24 -565 19 -19 155
-5 161 16 3 9 8 228 11 486 3 259 8 503 11 543 8 99 4 102 -113 102 -73 0 -95
-3 -99 -15z"/>
<path d="M3555 4644 c-27 -66 -21 -83 58 -159 130 -125 187 -154 305 -155 125
0 150 34 55 76 -80 36 -203 117 -303 202 -46 40 -88 72 -92 72 -4 0 -15 -16
-23 -36z"/>
<path d="M2335 4609 c-86 -73 -178 -135 -279 -190 -87 -47 -94 -66 -32 -87 87
-28 221 22 339 129 69 62 97 102 97 138 0 32 -22 71 -39 70 -9 0 -47 -27 -86
-60z"/>
<path d="M3463 4579 c-68 -99 -146 -156 -296 -217 -32 -13 -45 -38 -29 -54 14
-14 72 11 167 73 77 50 129 103 170 173 36 61 27 82 -12 25z"/>
<path d="M2500 4601 c0 -16 85 -125 126 -162 68 -60 194 -139 224 -139 5 0 10
11 10 26 0 20 -8 28 -37 40 -67 28 -196 120 -256 183 -59 62 -67 68 -67 52z"/>
<path d="M1450 4520 c-102 -20 -275 -37 -485 -48 -110 -6 -130 -10 -133 -24
-5 -25 66 -98 118 -122 109 -49 397 -4 682 106 61 23 78 34 78 49 0 11 -6 21
-12 23 -13 3 -108 25 -138 31 -8 1 -58 -5 -110 -15z"/>
<path d="M4361 4521 c-64 -16 -95 -41 -76 -60 14 -13 285 -93 430 -127 81 -18
149 -27 210 -28 80 0 97 3 148 28 38 18 69 43 88 69 46 64 43 67 -68 67 -153
0 -351 18 -498 45 -152 28 -147 28 -234 6z"/>
<path d="M2400 4426 c-65 -62 -109 -94 -164 -120 -76 -36 -89 -53 -61 -76 26
-21 154 -8 217 23 68 33 178 132 178 159 0 22 -55 98 -71 98 -6 0 -50 -38 -99
-84z"/>
<path d="M3461 4471 c-17 -21 -31 -46 -31 -54 0 -26 121 -129 190 -161 73 -34
179 -48 205 -26 30 25 17 46 -42 69 -73 28 -171 99 -224 161 -23 28 -48 50
-55 50 -7 0 -26 -18 -43 -39z"/>
<path d="M1720 4401 c-37 -22 -242 -85 -376 -116 -81 -19 -152 -39 -158 -46
-29 -29 116 -99 206 -99 55 0 216 45 315 88 97 42 233 118 233 131 0 5 -22 11
-49 14 -28 3 -63 13 -80 21 -33 18 -68 20 -91 7z"/>
<path d="M4175 4390 c-27 -11 -60 -19 -72 -20 -15 0 -23 -6 -23 -18 0 -36 257
-155 414 -192 134 -33 224 -23 290 32 41 34 46 55 14 63 -13 2 -77 16 -142 31
-66 14 -183 48 -262 75 -78 27 -148 49 -155 48 -8 0 -36 -9 -64 -19z"/>
<path d="M3352 4368 c-20 -20 -14 -33 33 -86 66 -74 185 -126 185 -82 0 5 -19
21 -41 36 -23 14 -67 52 -97 85 -31 32 -59 59 -62 59 -3 0 -11 -5 -18 -12z"/>
<path d="M2527 4293 c-96 -79 -111 -98 -80 -110 44 -17 229 122 221 166 -7 37
-45 21 -141 -56z"/>
<path d="M2676 4262 c-20 -27 -52 -62 -72 -77 -45 -34 -37 -43 19 -21 78 29
154 133 106 144 -10 2 -30 -15 -53 -46z"/>
<path d="M3265 4300 c-14 -22 49 -102 102 -129 12 -6 31 -11 43 -11 17 0 9 13
-44 65 -36 35 -66 69 -66 75 0 13 -27 13 -35 0z"/>
<path d="M1865 4244 c-96 -56 -209 -105 -305 -134 -39 -12 -74 -28 -77 -36
-16 -42 48 -98 124 -110 90 -13 259 44 433 147 88 52 113 80 91 102 -6 6 -11
19 -11 29 0 25 -29 37 -107 43 -67 6 -69 5 -148 -41z"/>
<path d="M3945 4282 c-32 -11 -51 -25 -64 -49 -25 -48 -17 -58 117 -136 143
-84 218 -115 311 -128 111 -16 221 30 221 93 0 20 -9 25 -119 58 -41 12 -141
56 -221 96 -148 74 -186 85 -245 66z"/>
<path d="M3173 4253 c-8 -21 108 -133 137 -133 26 0 25 8 -4 31 -14 11 -41 42
-61 69 -38 52 -61 62 -72 33z"/>
<path d="M2770 4226 c-11 -19 -36 -48 -55 -65 -41 -36 -43 -41 -13 -41 25 0
128 100 128 125 0 28 -38 16 -60 -19z"/>
<path d="M2275 4171 c-50 -6 -71 -14 -126 -54 -37 -26 -126 -77 -198 -113 -99
-49 -131 -70 -129 -82 5 -24 46 -41 114 -48 75 -8 146 16 247 83 99 66 222
185 214 206 -7 18 -17 19 -122 8z"/>
<path d="M3607 4174 c-18 -18 -2 -46 57 -102 83 -77 139 -115 234 -159 96 -45
187 -54 242 -26 37 19 47 50 20 63 -8 4 -53 26 -100 48 -47 23 -115 61 -152
86 -37 25 -84 54 -105 64 -39 20 -183 39 -196 26z"/>
<path d="M2404 4068 c-35 -34 -64 -67 -64 -75 0 -23 67 -15 147 17 41 17 82
30 92 30 20 0 51 30 51 48 0 7 -16 12 -39 12 -21 0 -57 7 -81 15 l-42 15 -64
-62z"/>
<path d="M3470 4109 c-14 -6 -38 -9 -53 -6 -33 4 -46 -15 -27 -38 7 -8 31 -20
54 -26 22 -6 60 -22 83 -35 43 -25 133 -34 133 -14 0 6 -27 37 -60 70 -62 62
-80 69 -130 49z"/>
<path d="M2565 3994 c-79 -31 -132 -44 -234 -59 -122 -18 -177 -45 -219 -107
-23 -35 -27 -52 -27 -112 0 -87 24 -142 97 -222 121 -131 246 -163 818 -209
286 -23 355 -48 404 -146 70 -140 0 -246 -204 -310 -30 -9 -55 -22 -55 -29 0
-7 25 -19 55 -27 30 -7 83 -27 116 -43 34 -17 69 -30 78 -30 24 0 132 56 190
98 69 51 130 137 151 216 40 148 -12 256 -170 351 -136 81 -307 111 -715 124
-225 8 -275 12 -331 30 -115 37 -197 114 -206 194 -5 39 -2 46 22 65 32 26
117 29 250 11 94 -13 147 -3 195 37 56 48 31 114 -57 151 -70 30 -112 34 -158
17z m123 -49 c2 -2 1 -8 -3 -14 -7 -13 -54 -14 -74 -2 -11 7 -10 11 5 20 16 9
62 7 72 -4z"/>
<path d="M3307 3986 c-126 -47 -164 -128 -83 -181 43 -28 162 -31 244 -6 87
26 138 27 179 1 67 -41 68 -104 1 -176 -46 -50 -157 -110 -223 -120 -25 -3
-45 -10 -45 -14 0 -5 30 -18 68 -31 37 -12 93 -35 125 -51 41 -22 64 -28 84
-23 82 20 219 137 253 217 32 76 26 180 -14 233 -48 63 -172 105 -310 105 -38
0 -59 7 -89 27 -46 32 -131 41 -190 19z m82 -42 c1 -1 0 -7 -4 -13 -8 -13 -55
-14 -75 -1 -12 7 -10 11 10 19 21 8 57 6 69 -5z"/>
<path d="M2331 3282 c-52 -55 -74 -123 -69 -215 4 -92 34 -155 105 -224 104
-102 230 -155 548 -232 261 -64 344 -120 353 -240 5 -72 -21 -127 -80 -166
-21 -14 -38 -29 -38 -34 0 -19 121 -102 140 -96 10 3 54 43 97 88 88 92 108
137 106 239 -2 85 -27 150 -84 212 -72 79 -163 113 -500 190 -188 43 -279 98
-321 194 -18 40 -18 46 -4 89 21 62 58 107 111 139 25 14 45 30 45 34 0 5 -35
11 -77 15 -43 3 -114 13 -158 22 -144 29 -132 30 -174 -15z"/>
<path d="M2965 3241 l-40 -6 2 -190 c2 -185 2 -190 25 -208 25 -21 82 -18 104
5 7 9 14 75 18 190 6 169 5 179 -14 198 -21 21 -27 21 -95 11z"/>
<path d="M2587 2600 c-67 -79 -88 -240 -43 -335 29 -63 144 -173 217 -209 64
-30 138 -46 223 -46 130 0 182 -37 173 -125 -4 -43 -10 -54 -47 -86 l-42 -36
27 -22 c36 -28 71 -27 111 4 69 53 96 174 55 253 -26 51 -87 107 -141 131 -25
11 -81 23 -125 26 -44 4 -96 11 -115 17 -171 51 -188 277 -27 359 20 11 37 26
37 33 0 8 -16 17 -37 20 -21 4 -73 18 -115 32 -42 13 -86 24 -97 24 -11 0 -35
-18 -54 -40z"/>
<path d="M2963 2535 c-22 -16 -23 -22 -23 -170 0 -142 2 -155 19 -165 27 -14
64 -13 84 3 15 11 18 32 18 166 0 85 -4 158 -8 162 -18 18 -68 20 -90 4z"/>
<path d="M2739 1962 c-16 -56 -4 -122 34 -179 27 -40 49 -57 137 -103 58 -30
117 -63 132 -73 38 -26 49 -64 31 -113 -26 -70 -26 -70 2 -82 63 -29 95 -5
117 87 23 101 -43 187 -188 245 -82 33 -150 79 -159 107 -4 12 -4 45 0 74 3
29 2 56 -3 59 -5 3 -27 8 -50 12 -40 6 -41 6 -53 -34z"/>
<path d="M2961 1951 c-6 -11 -11 -44 -11 -75 0 -60 16 -86 54 -86 38 0 47 22
44 102 l-3 73 -37 3 c-28 2 -39 -1 -47 -17z"/>
<path d="M2837 1632 c-43 -47 -48 -126 -13 -187 27 -46 66 -75 173 -129 114
-57 140 -112 88 -188 -27 -40 -21 -54 20 -44 39 10 75 72 75 129 0 86 -30 121
-153 182 -69 33 -85 46 -101 79 -19 38 -19 39 3 82 11 25 21 47 21 49 0 9 -65
45 -81 45 -9 0 -23 -8 -32 -18z"/>
<path d="M2976 1564 c-30 -29 -13 -104 22 -104 28 0 42 21 42 62 0 27 -5 40
-19 48 -25 13 -27 13 -45 -6z"/>
<path d="M2864 1319 c-24 -8 -54 -66 -54 -101 0 -12 9 -42 19 -65 19 -42 33
-52 179 -143 64 -39 76 -59 67 -111 -5 -31 -4 -39 8 -39 22 0 40 54 33 94 -9
47 -54 90 -137 131 -37 19 -73 44 -79 54 -18 34 -11 82 16 118 20 26 23 37 15
47 -16 19 -42 25 -67 15z"/>
<path d="M2970 1250 c-6 -12 -10 -41 -8 -67 3 -53 26 -76 56 -57 21 13 29 108
11 130 -17 20 -47 17 -59 -6z"/>
<path d="M2896 988 c-20 -28 -20 -59 -2 -103 22 -53 52 -46 34 7 -8 24 -7 38
6 65 9 19 14 39 11 44 -10 16 -33 10 -49 -13z"/>
<path d="M2980 830 c0 -131 0 -131 23 -128 21 3 22 6 22 128 0 122 -1 125 -22
128 -23 3 -23 3 -23 -128z"/>
</g>
</svg>
